<svg version="1.2" xmlns="http://www.w3.org/2000/svg" viewBox="0 0 885 119" width="885" height="119">
	<title>palletflow icon temp 2</title>
	<style>
		.s0 { fill: #f5f0ea } 
	</style>
	<path fill-rule="evenodd" class="s0" d="m516.6 3.3q-1.3-0.4-2.3-0.2-0.9 0.2-1.6 0.8c-0.9 1-1.4 2.4-1.7 3.8-0.2 1.2-0.5 2.4-0.6 3.5q0 0.4-0.1 0.9-0.1 1-0.2 1.6-0.1 0.3-0.2 0.4-0.1 0.3-0.1 0.3-0.4 0.2-0.8 0.1-0.5-0.1-1.1-0.6-0.5-0.5-1.2-1.1-0.1-0.1-0.2-0.2-0.5-0.4-1.1-0.8c-0.9-0.8-2.2-1.7-3.5-2.1-1.4-0.4-2.8-0.5-3.8 0.3q-0.9 0.8-1 1.8c-0.1 0.6 0 1.3 0.2 2 0.5 1.4 1.6 3.1 2.8 4.6 1 1.2 2 2.4 2.9 3.4q0.4 0.4 0.6 0.7 0.7 0.9 1.3 1.4 0.2 0.3 0.3 0.6 0.1 0.2 0.1 0.2 0 0 0 0.1-0.1 0-0.1 0.1-0.2 0.2-0.5 0.5c-0.6 0.5-1.2 1.1-2.1 1.8q-0.3 0.2-0.6 0.4c-1.6 1.2-3.3 2.7-5 4.2-2 1.8-3.9 3.7-5 5.6-1.1 1.9-1.4 3.8-0.2 5.3 0.6 1 1.9 1.2 3.2 1.1 1.4-0.1 3.1-0.6 4.6-1.1 1.1-0.4 2.1-0.9 3.1-1.3q0.6-0.2 1-0.3 0.9-0.5 1.5-0.6 0.2-0.1 0.5-0.1 0.1 0 0.1 0 0 0 0.1 0 0 0 0 0.1 0.1 0.1 0.2 0.5 0.1 0.5 0.3 1.4 0 0.5 0.1 1.2c0.2 0.9 0.5 2 0.7 3.1 0.3 1.5 0.7 3 1.4 4.2 0.5 1.2 1.4 2.1 2.6 2.1 1.2 0 2.3-1 3-2.3 0.9-1.3 1.5-3 2.2-4.6q0.4-1.3 0.9-2.5 0.1-0.2 0.1-0.4 0.3-0.9 0.6-1.8 0.3-1 0.7-1.5 0.1-0.3 0.2-0.4 0-0.1 0.1-0.1 0 0 0.2 0.1 0.1 0.1 0.5 0.3 0.4 0.4 1.1 0.9 0.5 0.5 1 0.8c0.8 0.6 1.7 1.4 2.6 2.2 1.3 0.9 2.6 1.8 3.9 2.4 1.2 0.5 2.4 0.7 3.3 0.1 1.2-0.9 1.1-2.3 0.5-3.8-0.5-1.6-1.5-3.4-2.7-5.1q-0.8-1.3-1.7-2.6-0.1-0.2-0.2-0.2l-0.1-0.2q-0.8-1.1-1.3-1.9-0.8-1.1-1.2-1.9-0.1-0.3-0.3-0.5-0.1-0.3 0-0.4 0 0 0-0.2 0.2-0.1 0.3-0.2 0.3-0.3 0.7-0.6c0.7-0.6 1.5-1.2 2.5-2q0.5-0.3 0.9-0.6c1.8-1.4 4-3.1 6.1-4.8 2.2-2 4.4-4 5.4-5.9 0.5-0.9 0.8-1.8 0.6-2.7q-0.3-1.3-1.8-2c-4-2.3-7.9-1.2-11.2 0.4-1.3 0.6-2.5 1.4-3.5 2.1q-0.5 0.2-0.8 0.5-1 0.5-1.8 0.9-0.6 0.3-1.2 0.3-0.2 0-0.3 0-0.1-0.1-0.2-0.2-0.2-0.3-0.2-1.1 0-0.7 0-1.5 0-0.2 0.1-0.5 0-0.6 0-1.5c0-1.3 0-2.7-0.5-3.9-0.5-1.3-1.5-2.3-3.1-2.8z"/>
	<path id="Flow" class="s0" d="m593.4 117h-44.5l1.6-11 13.2-3.8-2.8 3 13-81.7 2.3 3.5-12.5-3.9 1.8-10.9 31-0.8h41.8l-4.3 27.5h-12.4l-0.7-14.1 3.3 2.4h-33.2l3.9-3.3-5.7 36.3-2.5-4.1h33.3l-2.3 15.8-33.7-0.1 3.9-3.7-5.9 37.2-1.8-3.1 14.7 3.8zm74.3-0.1l-31.7 0.9 17.9-112.3 7.3 12.8-19-5.5 1.6-11.4 31.5-1.2-17.8 112.3-7.7-13.2 19.7 6.3zm57.6-81.7q9 0 15.9 3.3 6.9 3.1 10.8 10.5 3.9 7.2 3.9 19.1 0 9.4-2.7 18.5-2.7 9-8.3 16.4-5.5 7.2-14.1 11.6-8.4 4.3-19.9 4.3-9.2 0-16.1-3.3-6.9-3.3-10.8-10.5-3.7-7.2-3.7-18.9 0-9.4 2.5-18.4 2.7-9.2 8.3-16.5 5.5-7.4 13.9-11.7 8.6-4.4 20.3-4.4zm-2.9 15.1q-5.8 0-9.9 3.8-4 3.6-6.6 9.3-2.4 5.5-3.6 11.7-1 6.2-1 11.1 0 8.1 2.8 12.9 3 4.7 9.5 4.7 5.8 0 9.9-3.7 4-3.7 6.6-9.4 2.5-5.7 3.6-11.9 1.2-6.1 1.2-11 0-8.1-3-12.8-2.9-4.6-9.5-4.6zm75.2 67h-22.4l-7.8-68.5 2 1.9-8.7-2.2 1.6-11 24.3-1.3 3.8 68.5h-2.7l27-67.3 21.3-1.1 4.6 68.9-2.4-0.1 23-56.7 1 2.9-9.6-2.9 1.7-10.9 30.9-1.3-1.4 10.9-7.9 2.8 2.5-2.4-30.7 69.8h-22.4l-6.3-64.8 5.7 0.7z"/>
	<path id="Palette" class="s0" aria-label="Palette"  d="m40.4 79.7h-11.8l4.3-3.4v30.2l-3-4.2 17.3 3.9v10.8h-46.8v-10.8l14.4-4.2-3.3 4.5v-84.3l3.7 4.7-14.8-4v-10.8l33-0.7h13.6q12.5 0 20.5 4.3 7.9 4.2 11.6 11.6 3.9 7.4 3.9 16.6 0 10.1-4.6 18.3-4.5 8.1-13.9 12.8-9.4 4.6-24.1 4.6zm3.2-52.9h-14l3.3-3.3v44.1l-4.3-3.3h12q10 0 15.3-5.4 5.2-5.4 5.2-14.4 0-8.3-4.5-12.9-4.3-4.8-13-4.8zm112.2 33v46.6l-2.9-4.2 12.9 4.1v10.6l-26.2 1.4-2.8-14.4 1.5 0.4q-6 7.4-13.1 11-7 3.6-14.5 3.6-9.7 0-15.9-6.2-6.3-6.1-6.3-17.7 0-8.5 3.5-13.5 3.8-5.1 10.8-7.3 7.1-2.3 17.1-2.3h16.4l-1.5 1.7v-9.9q0-7.1-3.5-10.1-3.2-3-9.7-3-3.2 0-6.8 0.6-3.5 0.6-7.8 1.8l2.2-2.2-2 12.1h-13l-1.2-21.9q10.2-3 18.5-4.3 8.6-1.5 15.7-1.5 13.9 0 21.2 6 7.4 6 7.4 18.6zm-46.2 33.1q0 5.6 2.6 8.3 2.6 2.5 6.7 2.5 3.8 0 8.3-2.2 4.5-2.4 8.5-6.5l-0.9 3.6v-17.1l1.5 1.5h-12.9q-7.8 0-10.8 2.4-3 2.4-3 7.5zm91.3-92.5v104.4l-1.5-1.8 11.6 3.3v10.8h-41v-10.8l11.6-3.3-1.7 1.8v-90.8l1.4 1.5-11.3-3.1v-10.8zm53.7 118.5q-10.9 0-19.2-4.5-8.2-4.7-12.9-13.7-4.5-9.1-4.5-22.2 0-13.5 4.8-23.1 5-9.7 13.8-15 8.9-5.2 20.9-5.2 11.7 0 19 4.6 7.4 4.7 10.8 12.8 3.5 7.9 3.5 18 0 2.5-0.3 5.1-0.2 2.5-0.6 5.4h-54.9v-12.5h36.9l-2.7 2q0.1-6-1.2-10.5-1.2-4.7-4.2-7.2-2.9-2.6-8-2.6-5.8 0-9.4 3.5-3.6 3.3-5.3 9-1.5 5.7-1.5 12.7 0 8 2 14.3 1.9 6.3 6.3 9.9 4.5 3.6 11.7 3.6 5.1 0 10.9-1.8 6-2 12.5-5.7l7 11.2q-8.7 6-17.8 9-9 2.9-17.6 2.9zm74.8 0q-10.4 0-15.8-6.2-5.2-6.3-5.2-18.6v-45.9l2.7 2.7h-14.5v-11.2l14.8-3.5-3 3.6v-20.4l21.1-3.7v24.1l-2.2-2.8h22.8l-0.3 13.9h-22.5l2.2-2.7v43.1q0 6.4 2.1 9.3 2.1 2.8 6.3 2.8 2.4 0 5.2-0.7 3-0.9 6.5-2.3l3.9 11.6q-12.6 6.9-24.1 6.9zm59.2 0q-10.3 0-15.7-6.2-5.3-6.3-5.3-18.6v-45.9l2.7 2.7h-14.4v-11.2l14.7-3.5-3 3.6v-20.4l21.2-3.7v24.1l-2.3-2.8h22.8l-0.3 13.9h-22.5l2.3-2.7v43.1q0 6.4 2.1 9.3 2 2.8 6.2 2.8 2.5 0 5.3-0.7 3-0.9 6.5-2.3l3.9 11.6q-12.7 6.9-24.2 6.9zm64.3 0q-10.9 0-19.1-4.5-8.3-4.7-13-13.7-4.5-9.1-4.5-22.2 0-13.5 4.8-23.1 5-9.7 13.8-15 8.9-5.2 20.9-5.2 11.7 0 19 4.6 7.4 4.7 10.8 12.8 3.5 7.9 3.5 18 0 2.5-0.3 5.1-0.2 2.5-0.6 5.4h-54.9v-12.5h36.9l-2.7 2q0.1-6-1.2-10.5-1.2-4.7-4.2-7.2-2.8-2.6-8-2.6-5.8 0-9.4 3.5-3.6 3.3-5.3 9-1.5 5.7-1.5 12.7 0 8 2 14.3 1.9 6.3 6.3 9.9 4.5 3.6 11.7 3.6 5.1 0 10.9-1.8 6-2 12.5-5.7l7 11.2q-8.7 6-17.8 9-9 2.9-17.6 2.9z"/>
</svg>