<svg version="1.2" xmlns="http://www.w3.org/2000/svg" viewBox="0 0 864 117" width="864" height="117">
	<title>662699a46f40ccfb89cf21ea_farewell_sand_svg</title>
	<style>
		.s0 { fill: #f5f0ea } 
	</style>
	<path id="Pallete" class="s0" aria-label="Pallete"  d="m36.7 75.9h-13.9l2.7-2.2v35.5l-2-2.7 18.5 3v6.5h-41.7v-6.5l15.2-3.1-2.2 2.8v-90.9l2.5 2.9-15.5-2.7v-6.4l25.5-0.8h17q11.5 0 19 3.9 7.6 3.9 11.3 10.8 3.8 6.8 3.8 16 0 10-4.6 17.8-4.5 7.6-13.5 11.9-8.8 4.2-22.1 4.2zm4.2-55.5h-17.6l2.2-2.2v50.8l-2.7-2.2h14q13.3 0 20.2-6.4 7.3-6.8 7.3-18.1 0-10.2-6-16-5.8-5.9-17.4-5.9zm105.1 37.4v51.4l-2-2.6 13.8 2.7v6.5l-21 0.9-1.7-14.4 1 0.5q-6.6 7.2-14.3 11-7.6 3.5-14.8 3.5-8.7 0-14.7-5.5-6-5.6-6-16.9 0-8.7 3.7-13.4 3.8-4.9 10.2-6.7 6.7-2.1 15.4-2.1h19.7l-1.3 1.5v-14.3q0-8.2-4.5-11.7-4.3-3.6-11.9-3.6-4.1 0-8.7 0.9-4.4 0.8-9.5 2.6l1.8-2-1.5 13.7h-8l-1.2-18.7q8.6-2.8 15.9-4.1 7.6-1.5 14-1.5 12 0 18.7 5.4 6.9 5.2 6.9 16.9zm-47.5 36.2q0 7.3 3.4 10.8 3.6 3.4 9 3.4 5.3 0 11.5-3.1 6.5-3.4 12.5-9l-0.9 3.3v-20.2l1.3 1.4h-17.8q-10.6 0-14.9 3.3-4.1 3.1-4.1 10.1zm89.6-93.7v108l-1.3-1.5 13 2.7v6.5h-35.4v-6.5l13-2.7-1.3 1.5v-99.3l1.2 1.4-12.9-2.7v-6.4zm43.2 0v108l-1.3-1.5 13 2.7v6.5h-35.5v-6.5l13.1-2.7-1.3 1.5v-99.3l1.2 1.4-13-2.7v-6.4zm56.8 117q-10.1 0-17.9-4.5-7.6-4.6-12-13.5-4.3-8.8-4.3-21.6 0-13 4.5-22.5 4.4-9.4 12.6-14.5 8.3-5.2 19.4-5.2 10.6 0 17.3 4.4 6.9 4.4 10.2 12.3 3.4 7.7 3.4 17.7 0 1.7-0.2 3.3 0 1.7-0.3 4.1h-57.8v-8.5h47.3l-1.4 0.9q0.2-6.8-1.6-12.5-1.9-5.7-6.3-9.2-4.2-3.4-11.5-3.4-7.6 0-12.8 4-5.2 4.1-7.8 11.3-2.6 7-2.6 16.2 0 9.8 2.7 17.1 3 7 8.4 11.1 5.6 3.8 13.5 3.8 5.6 0 12.2-2.2 6.6-2.2 13.6-6.7l4.3 6.7q-8.3 5.8-16.7 8.7-8.4 2.7-16.2 2.7zm72.9 0q-7.9 0-12.5-4.8-4.3-4.9-4.3-14.8v-54.4l1.9 1.9h-15.5v-6.7l15.6-2.1-2 2.3v-19.7l12-1.9v21.6l-1.6-1.9h23.4l-0.3 8.4h-23.1l1.6-1.9v52.8q0 6.3 2.4 9.2 2.6 2.8 7 2.8 2.7 0 5.9-0.8 3.2-1 6.8-2.7l2.5 7q-10.6 5.7-19.8 5.7zm61.5 0q-10.1 0-17.9-4.5-7.6-4.6-12-13.5-4.3-8.8-4.3-21.6 0-13 4.5-22.5 4.4-9.4 12.6-14.5 8.3-5.2 19.4-5.2 10.6 0 17.3 4.4 6.9 4.4 10.2 12.3 3.4 7.7 3.4 17.7 0 1.7-0.2 3.3 0 1.7-0.3 4.1h-57.8v-8.5h47.3l-1.4 0.9q0.2-6.8-1.6-12.5-1.9-5.7-6.3-9.2-4.2-3.4-11.5-3.4-7.6 0-12.8 4-5.2 4.1-7.8 11.3-2.6 7-2.6 16.2 0 9.8 2.7 17.1 3 7 8.4 11.1 5.6 3.8 13.5 3.8 5.6 0 12.2-2.2 6.6-2.2 13.6-6.7l4.3 6.7q-8.3 5.8-16.7 8.7-8.4 2.7-16.2 2.7z"/>
	<path id="Flow" class="s0" aria-label="Flow"  d="m576.3 116h-39.7l1-6.5 14.5-3-2.1 2 14.2-89.7 1.6 2.4-13.8-2.6 1-6.6 24.2-0.7h45.8l-3.7 23.9h-7.3l0.1-16.4 2 1.7h-40.4l2.5-2-7 43.7-1.6-3h36.8l-1.3 9.2h-37.1l2.6-2.3-6.7 42.5-1.3-2.1 16.7 3zm70.1-0.2l-23.7 0.7 17.7-111.9 4.1 7.1-16.3-3.8 1-6.7 23.6-1-17.7 111.9-4.2-7.1 16.5 4.1zm58.2-80.4q8.5 0 14.9 3.5 6.4 3.3 9.9 10.5 3.7 7.1 3.7 18.4 0 9.2-2.6 18.2-2.5 8.8-7.8 15.9-5.1 7.1-12.9 11.4-7.7 4.1-18.1 4.1-8.4 0-14.9-3.4-6.4-3.3-10.1-10.5-3.5-7.3-3.5-18.7 0-9.3 2.5-18 2.6-8.8 7.8-15.8 5.1-7.2 12.9-11.4 7.8-4.2 18.2-4.2zm-1.3 9q-7.1 0-12.6 3.8-5.2 3.7-8.7 9.7-3.4 6.1-5.2 13.2-1.7 7.2-1.7 13.9 0 11.1 4.5 17.3 4.5 6.1 13.4 6.1 7.1 0 12.3-3.7 5.3-3.8 8.8-9.9 3.6-6 5.3-13.2 1.8-7.1 1.8-13.9 0-11.2-4.5-17.3-4.4-6-13.4-6zm66.8 71.9h-12.7l-8.2-72.2 1.5 1.4-9.9-1.7 1.1-6.6 17.8-1 6.4 73.3h-1.8l30.6-72.5 12.6-0.7 7 72.8h-1.3l27.8-65.1 0.7 1.7-10.7-1.9 1-6.6 26.5-1-0.8 6.6-8.9 2.3 2.2-1.6-32.4 72.8h-12.8l-7.9-70.9 3.2 0.2z"/>
	<path fill-rule="evenodd" class="s0" d="m499.6 2.3q-1.2-0.4-2.1-0.2-0.9 0.2-1.5 0.8c-0.8 0.9-1.3 2.2-1.6 3.5-0.2 1.1-0.4 2.2-0.5 3.2q0 0.4-0.1 0.8-0.1 0.9-0.2 1.5-0.1 0.3-0.2 0.4-0.1 0.2-0.1 0.2-0.3 0.2-0.7 0.1-0.5-0.1-1-0.5-0.5-0.5-1.1-1-0.1-0.1-0.2-0.2-0.5-0.4-1-0.8c-0.9-0.7-2.1-1.5-3.3-1.9-1.2-0.4-2.5-0.5-3.5 0.3q-0.8 0.7-0.9 1.6c-0.1 0.6 0 1.2 0.2 1.9 0.5 1.3 1.5 2.8 2.6 4.2 0.9 1.1 1.8 2.2 2.7 3.2q0.3 0.3 0.5 0.6 0.7 0.8 1.2 1.3 0.2 0.3 0.3 0.5 0.1 0.2 0.1 0.2 0 0 0 0.1-0.1 0-0.1 0.1-0.2 0.2-0.5 0.5c-0.5 0.4-1.1 1-1.9 1.6q-0.3 0.2-0.6 0.4c-1.4 1.1-3 2.5-4.6 3.9-1.8 1.6-3.6 3.4-4.6 5.1-1 1.8-1.3 3.5-0.2 4.9 0.6 0.9 1.8 1.1 3 1 1.3-0.1 2.8-0.5 4.2-1 1-0.4 2-0.8 2.9-1.2q0.5-0.2 0.9-0.3 0.8-0.4 1.4-0.5 0.2-0.1 0.4-0.1 0.1 0 0.1 0 0 0 0.1 0 0 0 0 0 0 0 0 0.1 0.1 0.1 0.2 0.4 0.1 0.5 0.3 1.3 0 0.5 0.1 1.1c0.2 0.9 0.4 1.9 0.6 2.9 0.3 1.4 0.7 2.8 1.3 3.9 0.5 1.1 1.3 1.9 2.4 1.9 1.1 0 2.1-0.9 2.8-2.1 0.8-1.2 1.4-2.8 2-4.3q0.4-1.2 0.8-2.3 0.1-0.1 0.1-0.3 0.3-0.9 0.6-1.7 0.3-0.9 0.6-1.4 0.1-0.2 0.2-0.3 0-0.1 0.1-0.1 0 0 0.2 0.1 0.1 0.1 0.4 0.2 0.4 0.4 1.1 0.9 0.4 0.4 0.9 0.7c0.7 0.6 1.5 1.3 2.4 2 1.2 0.9 2.4 1.7 3.6 2.2 1.1 0.5 2.2 0.7 3 0.1 1.1-0.8 1-2.1 0.5-3.5-0.5-1.4-1.4-3.1-2.5-4.7q-0.8-1.2-1.6-2.4-0.1-0.1-0.2-0.1l-0.1-0.2q-0.7-1-1.2-1.8-0.7-1-1.1-1.7-0.1-0.3-0.2-0.5-0.1-0.3 0-0.4 0 0 0-0.1 0.1-0.1 0.2-0.2 0.3-0.3 0.7-0.6c0.6-0.5 1.4-1.1 2.3-1.8q0.4-0.3 0.8-0.6c1.7-1.3 3.7-2.8 5.6-4.4 2.1-1.8 4.1-3.7 5-5.4 0.5-0.9 0.7-1.7 0.6-2.5q-0.3-1.2-1.7-1.9c-3.7-2.1-7.3-1.1-10.3 0.4-1.2 0.6-2.3 1.3-3.2 1.9q-0.5 0.2-0.8 0.5-0.9 0.5-1.6 0.8-0.6 0.3-1.1 0.3-0.2 0-0.3 0-0.1-0.1-0.2-0.2-0.2-0.3-0.2-1 0-0.6 0-1.4 0-0.2 0.1-0.4 0-0.6 0-1.4c0-1.2 0-2.5-0.5-3.6-0.4-1.2-1.3-2.1-2.8-2.6zm-10.4 19.7q0 0 0 0 0 0 0 0 0 0 0 0 0 0 0 0z"/>
</svg>